<?xml version="1.0" standalone="no"?>
<!DOCTYPE svg PUBLIC "-//W3C//DTD SVG 20010904//EN"
 "http://www.w3.org/TR/2001/REC-SVG-20010904/DTD/svg10.dtd">
<svg version="1.0" xmlns="http://www.w3.org/2000/svg"
 width="854.000000pt" height="292.000000pt" viewBox="0 0 854.000000 292.000000"
 preserveAspectRatio="xMidYMid meet">
<metadata>
Created by potrace 1.16, written by Peter Selinger 2001-2019
</metadata>
<g transform="translate(0.000000,292.000000) scale(0.100000,-0.100000)"
fill="#000000" stroke="none">
<path d="M1315 2840 l-370 -5 381 -3 c209 -1 384 -5 387 -8 7 -8 -14 -49 -55
-108 -16 -21 -28 -45 -28 -51 0 -7 -7 -19 -16 -26 -9 -7 -20 -23 -25 -36 -7
-20 -72 -124 -119 -193 -10 -14 -27 -43 -39 -65 -12 -22 -46 -78 -76 -125 -31
-47 -62 -98 -70 -115 -8 -16 -39 -68 -69 -115 -31 -47 -66 -105 -80 -130 -25
-47 -102 -167 -131 -208 -15 -21 -19 -22 -34 -8 -9 8 -29 39 -44 68 -15 29
-37 64 -49 78 l-20 25 18 -30 c10 -16 27 -48 37 -70 28 -58 56 -95 72 -95 15
0 35 28 167 245 47 77 123 201 168 275 83 134 183 298 295 480 31 52 70 114
86 137 16 23 29 50 29 61 0 18 -22 35 -38 30 -4 -2 -173 -5 -377 -8z"/>
<path d="M5030 2658 c-25 -13 -25 -15 -34 -201 -7 -140 -6 -194 3 -214 l12
-26 91 7 c73 6 95 4 114 -9 13 -8 24 -20 24 -25 0 -16 101 -220 117 -236 19
-19 102 -19 109 0 3 8 -2 27 -11 43 -15 26 -15 26 -9 3 3 -14 7 -29 8 -35 0
-5 -19 -10 -44 -10 l-45 0 -70 140 -70 140 -94 3 c-52 1 -101 8 -108 14 -10 8
-13 56 -13 199 0 103 4 190 9 193 16 10 285 8 319 -3 18 -5 50 -24 71 -40 47
-38 67 -103 57 -190 -4 -38 -3 -51 4 -41 13 21 13 114 -2 162 -14 46 -75 103
-127 119 -60 17 -282 22 -311 7z"/>
<path d="M5574 2656 c-18 -13 -19 -28 -19 -211 0 -238 -5 -229 125 -219 72 5
88 4 99 -10 7 -8 37 -68 67 -133 30 -64 59 -122 65 -127 7 -7 10 -7 7 -1 -3 6
-22 46 -42 90 -21 44 -49 105 -64 135 l-27 55 -85 3 c-144 4 -130 -19 -130
212 l0 200 153 1 c172 2 158 16 -19 18 -81 1 -115 -3 -130 -13z"/>
<path d="M6125 2646 c-14 -21 -16 -57 -13 -254 3 -216 4 -232 24 -259 27 -36
47 -40 73 -14 17 17 21 34 21 86 l0 65 43 1 c298 6 317 9 317 48 0 10 -6 25
-13 35 -12 16 -33 19 -173 21 -87 2 -163 4 -167 4 -4 1 -6 43 -5 94 l3 92 162
5 c138 4 165 8 180 23 16 16 16 20 3 45 l-16 27 -212 3 -211 2 -16 -24z m443
-23 c4 -41 -1 -42 -193 -46 l-150 -2 -3 -94 c-2 -58 1 -98 8 -105 7 -7 76 -13
173 -16 l162 -5 0 -30 0 -30 -170 -5 -170 -5 -3 -55 c-1 -30 -4 -65 -7 -76 -6
-28 -38 -36 -64 -17 -20 14 -21 23 -21 263 0 189 3 250 13 253 6 3 104 5 217
4 l205 -2 3 -32z"/>
<path d="M6682 2654 c-22 -15 -22 -15 -22 -354 0 -325 1 -340 19 -350 11 -5
32 -9 48 -9 25 1 24 2 -7 8 l-35 6 -3 344 c-2 269 1 346 10 353 20 12 92 9
110 -4 9 -7 31 -42 50 -78 18 -36 36 -67 39 -70 3 -3 10 -16 14 -30 4 -14 13
-32 20 -40 7 -8 22 -34 34 -57 11 -24 30 -60 40 -80 23 -47 33 -183 13 -183
-4 0 -25 30 -45 68 -21 37 -42 74 -47 82 -6 8 -17 31 -26 50 -8 19 -28 58 -44
85 -15 28 -35 65 -44 83 -23 49 -36 40 -34 -25 l2 -58 4 55 3 55 18 -35 c10
-19 41 -80 71 -135 135 -255 130 -248 158 -237 12 4 14 19 9 78 -6 76 -12 92
-107 269 -24 44 -56 104 -72 134 -41 80 -54 91 -107 91 -26 0 -56 -7 -69 -16z"/>
<path d="M7126 2654 c-13 -13 -16 -48 -17 -217 -2 -332 2 -471 13 -484 15 -19
73 -16 89 4 11 13 14 81 14 347 0 182 -4 339 -8 349 -10 22 -69 23 -91 1z m79
-349 l0 -350 -29 -3 c-16 -2 -33 1 -38 6 -5 5 -11 159 -14 342 -6 317 -5 334
12 347 11 8 30 13 44 11 l25 -3 0 -350z"/>
<path d="M5118 2574 c-5 -4 -8 -63 -8 -131 l0 -123 80 0 c99 0 152 22 169 71
25 71 5 138 -48 164 -38 19 -180 33 -193 19z m184 -28 c72 -35 77 -148 9 -193
-28 -19 -47 -23 -112 -23 l-79 0 0 113 c0 63 3 117 8 121 13 14 136 1 174 -18z"/>
<path d="M5670 2560 c-6 -12 -9 -65 -8 -127 l3 -108 85 -3 c98 -3 136 13 164
69 51 101 -30 189 -173 189 -50 0 -62 -3 -71 -20z m158 -5 c61 -18 85 -48 84
-103 -1 -92 -46 -125 -164 -120 l-73 3 0 100 c0 55 4 108 7 118 9 22 74 23
146 2z"/>
<path d="M1792 2331 c-80 -7 -108 -26 -96 -65 7 -26 85 -162 134 -236 20 -30
54 -86 74 -125 87 -162 164 -283 212 -331 75 -77 114 -93 236 -99 132 -7 172
-1 193 32 19 29 11 57 -36 128 -15 22 -50 83 -79 135 -28 52 -62 111 -74 130
-28 42 -166 283 -186 323 -8 16 -28 45 -45 64 -26 30 -40 37 -86 44 -61 9
-139 9 -247 0z"/>
<path d="M1542 2203 c-21 -18 -43 -53 -157 -258 -34 -60 -69 -123 -79 -140
-94 -161 -188 -335 -192 -355 -4 -17 7 -49 34 -100 110 -211 131 -240 178
-240 25 0 41 17 79 85 15 28 48 85 74 128 25 44 65 114 88 157 23 43 57 100
75 127 18 26 51 84 73 127 37 74 40 85 40 165 0 79 -3 93 -37 163 -69 144
-122 187 -176 141z"/>
<path d="M5016 2138 c-20 -28 -22 -168 -4 -186 7 -7 28 -12 48 -12 51 0 60 14
60 93 0 66 -11 104 -34 119 -21 15 -55 8 -70 -14z m84 -17 c12 -23 13 -140 1
-159 -5 -8 -23 -12 -47 -10 l-39 3 -3 76 c-2 60 1 80 13 93 22 22 62 20 75 -3z"/>
<path d="M5582 2151 c-30 -19 -44 -178 -18 -200 8 -7 34 -11 58 -9 l43 3 3 89
c2 72 0 92 -14 107 -18 20 -50 24 -72 10z m73 -106 l0 -90 -40 0 -40 0 -3 78
c-3 91 6 110 52 105 l31 -3 0 -90z"/>
<path d="M465 2084 c-8 -8 -34 -48 -56 -87 -23 -40 -84 -139 -134 -222 -90
-147 -145 -247 -145 -262 0 -4 16 19 35 52 86 152 99 175 132 222 13 17 23 34
23 37 0 3 12 24 28 48 29 46 31 49 89 146 20 34 42 62 48 62 5 0 28 -30 50
-66 22 -36 50 -78 63 -94 12 -15 22 -31 22 -35 0 -8 72 -127 81 -135 4 -3 16
-23 28 -45 40 -75 130 -215 138 -215 3 0 -3 12 -13 28 -10 15 -86 140 -169
277 -184 305 -177 294 -192 299 -7 3 -19 -2 -28 -10z"/>
<path d="M2472 2015 c41 -73 203 -338 323 -530 189 -304 317 -514 357 -588 63
-114 97 -114 148 -1 10 23 34 63 53 90 62 88 217 350 233 395 27 76 8 153 -64
261 -14 21 -27 37 -29 35 -4 -5 12 -36 48 -92 34 -53 53 -125 44 -166 -8 -39
-19 -60 -92 -181 -29 -48 -53 -92 -53 -97 0 -5 -7 -14 -15 -21 -8 -6 -33 -44
-55 -83 -92 -162 -129 -217 -145 -217 -11 0 -69 87 -84 125 -2 6 -17 29 -32
52 -16 23 -29 46 -29 51 0 5 -9 17 -20 27 -11 10 -20 24 -20 31 0 7 -10 25
-23 41 -12 15 -28 39 -35 53 -7 14 -26 45 -42 70 -16 25 -38 62 -49 82 -12 20
-34 57 -51 81 -16 25 -30 49 -30 55 0 6 -4 12 -8 14 -5 2 -42 59 -83 127 -41
68 -82 135 -91 150 -10 14 -29 46 -43 71 -28 50 -38 67 -77 127 -16 23 -28 46
-28 51 0 5 -9 17 -21 28 -15 13 -11 2 13 -41z"/>
<path d="M6135 2020 c-20 -22 -19 -66 1 -74 31 -12 429 -7 442 6 18 18 15 45
-7 67 -17 17 -35 19 -220 18 -172 -1 -204 -4 -216 -17z m363 1 l73 -1 -3 -32
-3 -33 -213 -3 c-190 -2 -213 -1 -219 14 -9 24 10 48 43 54 16 3 79 4 139 3
61 -1 143 -2 183 -2z"/>
<path d="M4042 1620 c4 -13 127 -15 1011 -18 993 -2 1006 -2 1017 -22 7 -13
10 -199 10 -570 0 -367 3 -557 10 -570 11 -20 28 -20 1145 -20 1122 0 1135 0
1155 -20 24 -24 24 -30 6 -56 -14 -19 -39 -19 -1194 -22 -1066 -2 -1182 -1
-1196 14 -14 14 -16 78 -16 574 0 307 -3 565 -6 574 -6 14 -100 16 -970 16
l-963 0 -15 -27 c-16 -30 -69 -84 -101 -101 -11 -6 -15 -12 -9 -12 22 0 89 57
109 93 l20 37 952 0 c751 0 953 -3 960 -12 4 -7 6 -262 5 -565 l-3 -553 25
-25 25 -25 1170 0 c708 0 1179 4 1194 9 52 20 46 84 -11 108 -32 13 -176 15
-1152 12 l-1115 -3 -5 566 c-5 539 -6 567 -24 587 l-19 21 -997 0 c-783 0
-999 3 -1009 13 -11 10 -13 9 -9 -3z"/>
<path d="M2350 1398 c-25 -3 -129 -5 -232 -2 -210 5 -425 -9 -466 -30 -84 -44
-212 -219 -212 -291 0 -62 -12 -60 482 -59 l449 1 17 23 c32 44 112 175 137
225 30 60 31 76 6 106 -21 26 -104 39 -181 27z"/>
<path d="M130 1379 c0 -13 62 -119 264 -449 32 -52 84 -138 116 -190 32 -52
76 -124 98 -160 23 -36 80 -130 129 -210 107 -177 185 -292 201 -298 7 -2 2 8
-12 23 -14 15 -47 63 -73 107 -27 43 -62 102 -80 131 -18 29 -36 59 -40 67 -3
8 -23 40 -43 70 -21 30 -46 70 -56 89 -21 38 -79 130 -91 146 -5 6 -14 21 -21
35 -7 14 -27 48 -45 77 -102 165 -152 249 -156 258 -2 5 -15 23 -27 38 -13 16
-24 33 -24 38 0 5 -20 40 -44 77 -24 38 -56 91 -70 118 -14 27 -26 42 -26 33z"/>
<path d="M2695 1258 c-34 -49 -363 -608 -354 -602 5 3 24 30 42 61 18 30 40
69 50 86 11 18 42 69 70 115 92 146 116 186 130 212 23 45 87 140 95 140 4 0
31 -39 61 -88 29 -48 62 -99 72 -114 11 -15 19 -31 19 -35 0 -4 14 -26 30 -47
17 -22 30 -43 30 -47 0 -5 14 -28 30 -52 17 -25 30 -47 30 -50 0 -3 20 -36 45
-74 25 -37 45 -73 45 -79 0 -6 8 -18 17 -25 15 -12 16 -12 9 6 -7 19 -97 171
-188 315 -23 36 -71 117 -107 180 -71 124 -94 142 -126 98z"/>
<path d="M3774 1176 c-18 -14 -19 -30 -19 -389 0 -302 3 -377 14 -390 17 -21
70 -22 97 -3 18 14 19 28 17 311 -3 317 1 339 41 234 25 -65 34 -79 49 -79 6
0 4 6 -5 13 -8 6 -25 40 -38 75 -12 34 -27 65 -31 68 -5 3 -9 15 -10 27 -1 20
-2 20 -9 -3 -4 -14 -8 -159 -9 -322 -1 -255 -3 -299 -17 -312 -18 -18 -60 -21
-69 -5 -10 15 -15 758 -5 764 15 9 112 17 135 11 16 -4 31 -23 49 -62 14 -31
26 -61 26 -68 0 -6 14 -40 30 -76 34 -75 40 -59 9 21 -57 148 -73 180 -90 189
-28 15 -142 12 -165 -4z"/>
<path d="M4321 1173 c-12 -10 -31 -43 -42 -73 -32 -86 -71 -212 -66 -216 2 -2
13 24 25 58 44 132 72 202 85 215 18 19 70 26 124 18 l43 -6 0 -384 c0 -416 3
-395 -54 -395 -45 0 -46 6 -46 343 0 195 -4 316 -9 312 -5 -3 -19 -31 -31 -63
-12 -31 -26 -69 -33 -84 -12 -29 -45 -42 -80 -33 l-22 5 22 -11 c14 -8 31 -8
50 -2 27 9 35 23 80 138 4 11 10 -119 13 -288 6 -337 3 -327 66 -327 16 0 35
5 42 12 17 17 17 769 0 786 -19 19 -142 15 -167 -5z"/>
<path d="M4606 1174 c-13 -13 -16 -42 -16 -158 0 -161 3 -169 67 -164 55 4 63
28 63 179 0 109 -2 128 -18 142 -23 21 -76 22 -96 1z m96 -26 c2 -13 1 -81 -2
-153 l-5 -130 -31 -3 c-54 -5 -60 11 -62 158 -1 73 1 136 4 141 3 5 25 9 49 9
38 0 44 -3 47 -22z"/>
<path d="M4827 1175 c-15 -14 -17 -42 -15 -228 l3 -212 2 210 c2 115 7 213 12
218 11 11 321 11 354 1 12 -4 41 -20 64 -37 81 -58 104 -184 54 -299 -14 -34
-32 -53 -70 -76 -28 -18 -51 -38 -51 -45 0 -7 16 -45 35 -84 19 -39 35 -78 35
-86 0 -8 6 -20 14 -26 20 -17 47 -99 35 -106 -18 -12 -51 -14 -73 -5 -23 8
-41 40 -118 210 -42 92 -43 93 -58 98 -8 3 -5 -7 8 -23 12 -15 22 -32 22 -38
0 -5 27 -65 59 -132 62 -127 69 -135 132 -135 34 0 53 22 43 52 -3 13 -31 74
-60 136 -30 62 -54 122 -54 133 0 12 16 29 45 47 98 58 129 200 70 316 -25 50
-39 65 -85 90 -54 31 -57 31 -221 34 -144 4 -168 2 -182 -13z"/>
<path d="M4935 1078 c-3 -7 -6 -66 -8 -132 -4 -149 -4 -150 107 -144 131 7
180 45 180 141 0 101 -63 147 -200 147 -50 0 -76 -4 -79 -12z m211 -20 c35
-16 54 -57 54 -117 0 -41 -5 -56 -28 -82 -26 -29 -35 -32 -116 -39 -49 -5 -95
-6 -102 -3 -19 7 -20 233 -1 252 14 15 152 8 193 -11z"/>
<path d="M4004 746 c-3 -15 1 -37 10 -53 8 -15 24 -49 35 -76 22 -53 46 -67
104 -59 41 5 54 22 96 130 17 42 18 53 7 67 -10 14 -21 17 -52 12 -21 -4 -44
-13 -50 -22 -15 -20 -26 -19 -47 5 -11 14 -29 20 -57 20 -34 0 -41 -4 -46 -24z
m104 -16 c7 -11 18 -20 25 -20 7 0 18 9 25 20 9 15 23 20 52 20 50 0 50 -7 8
-104 -30 -72 -33 -74 -70 -78 -57 -5 -74 5 -93 59 -9 26 -23 60 -31 75 -22 41
-18 48 29 48 31 0 45 -5 55 -20z"/>
<path d="M4606 754 c-13 -13 -16 -43 -16 -175 0 -147 2 -161 21 -180 28 -28
79 -23 96 11 16 31 18 312 3 341 -13 24 -81 26 -104 3z m92 -181 l-3 -178 -31
-3 c-52 -5 -60 13 -63 137 -1 62 1 136 4 166 l7 55 44 0 44 0 -2 -177z"/>
</g>
</svg>
